<svg width="16" height="17" viewBox="0 0 16 17" fill="none" xmlns="http://www.w3.org/2000/svg">
<path d="M7.247 11.64L2.451 6.158C1.885 5.513 2.345 4.5 3.204 4.5H12.796C12.9882 4.49984 13.1765 4.55509 13.3381 4.65914C13.4998 4.76319 13.628 4.91164 13.7074 5.08669C13.7869 5.26175 13.8142 5.456 13.7861 5.64618C13.758 5.83636 13.6757 6.01441 13.549 6.159L8.753 11.639C8.65913 11.7464 8.54338 11.8325 8.41351 11.8915C8.28363 11.9505 8.14264 11.981 8 11.981C7.85735 11.981 7.71636 11.9505 7.58649 11.8915C7.45661 11.8325 7.34086 11.7464 7.247 11.639V11.64Z" fill="#757575"/>
</svg>
